<?xml version="1.0" encoding="utf-8"?>
<!-- Generator: Adobe Illustrator 23.0.5, SVG Export Plug-In . SVG Version: 6.00 Build 0)  -->
<svg version="1.1" id="Layer_1" xmlns="http://www.w3.org/2000/svg" xmlns:xlink="http://www.w3.org/1999/xlink" x="0px" y="0px"
	 viewBox="0 0 130.8 32" style="enable-background:new 0 0 130.8 32;" xml:space="preserve">
<style type="text/css">
	.st0{opacity:0.5;fill:#D6E6FC;}
	.st1{fill:#053F92;}
	.st2{fill:none;stroke:#053F92;stroke-dasharray:5,2;}
</style>
<path class="st0" d="M114.8,31.5H16C7.4,31.5,0.5,24.6,0.5,16v0C0.5,7.4,7.4,0.5,16,0.5h98.8c8.6,0,15.5,6.9,15.5,15.5v0
	C130.3,24.6,123.3,31.5,114.8,31.5z"/>
<g>
	<g>
		<g>
			<path class="st1" d="M12.3,20.2v-9.9h6.5V12h-4.5v2.4h4v1.7h-4v4.1H12.3z"/>
			<path class="st1" d="M22.2,10.3v9.9h-2.1v-9.9H22.2z"/>
			<path class="st1" d="M26,20.3c-0.5,0-0.9-0.1-1.3-0.2c-0.4-0.2-0.7-0.4-0.9-0.7c-0.2-0.3-0.3-0.7-0.3-1.2c0-0.4,0.1-0.8,0.2-1
				c0.2-0.3,0.4-0.5,0.6-0.7c0.3-0.2,0.6-0.3,0.9-0.4c0.3-0.1,0.7-0.1,1-0.2c0.4,0,0.8-0.1,1-0.1c0.3,0,0.5-0.1,0.6-0.2
				c0.1-0.1,0.2-0.2,0.2-0.4v0c0-0.3-0.1-0.5-0.3-0.7c-0.2-0.2-0.5-0.3-0.8-0.3c-0.4,0-0.7,0.1-0.9,0.2c-0.2,0.2-0.4,0.4-0.4,0.6
				l-1.9-0.2c0.1-0.5,0.3-0.8,0.6-1.2c0.3-0.3,0.6-0.6,1.1-0.8c0.4-0.2,1-0.3,1.6-0.3c0.4,0,0.8,0,1.2,0.1c0.4,0.1,0.7,0.2,1,0.4
				c0.3,0.2,0.5,0.5,0.7,0.8c0.2,0.3,0.3,0.7,0.3,1.1v5h-1.9v-1h-0.1c-0.1,0.2-0.3,0.4-0.5,0.6s-0.4,0.3-0.7,0.4
				C26.7,20.3,26.3,20.3,26,20.3z M26.6,18.9c0.3,0,0.6-0.1,0.8-0.2s0.4-0.3,0.5-0.5c0.1-0.2,0.2-0.4,0.2-0.7v-0.8
				c-0.1,0-0.2,0.1-0.3,0.1c-0.1,0-0.2,0.1-0.4,0.1S27.2,17,27.1,17c-0.1,0-0.3,0-0.4,0.1c-0.2,0-0.5,0.1-0.6,0.2
				c-0.2,0.1-0.3,0.2-0.4,0.3s-0.1,0.3-0.1,0.5c0,0.3,0.1,0.5,0.3,0.6C26,18.8,26.2,18.9,26.6,18.9z"/>
			<path class="st1" d="M35.1,23.1c-0.7,0-1.2-0.1-1.7-0.3c-0.5-0.2-0.9-0.4-1.1-0.7c-0.3-0.3-0.5-0.7-0.5-1.1l1.9-0.3
				c0.1,0.1,0.1,0.3,0.3,0.4c0.1,0.1,0.3,0.2,0.5,0.3c0.2,0.1,0.5,0.1,0.8,0.1c0.4,0,0.8-0.1,1.1-0.3c0.3-0.2,0.4-0.6,0.4-1.1v-1.4
				h-0.1c-0.1,0.2-0.2,0.4-0.4,0.6c-0.2,0.2-0.4,0.3-0.7,0.4c-0.3,0.1-0.6,0.2-1,0.2c-0.6,0-1.1-0.1-1.5-0.4s-0.8-0.7-1.1-1.2
				s-0.4-1.2-0.4-2c0-0.8,0.1-1.5,0.4-2.1c0.3-0.6,0.6-1,1.1-1.3c0.5-0.3,1-0.4,1.5-0.4c0.4,0,0.8,0.1,1,0.2s0.5,0.3,0.7,0.5
				c0.2,0.2,0.3,0.4,0.4,0.6h0.1v-1.2h2v7.5c0,0.6-0.2,1.2-0.5,1.6c-0.3,0.4-0.7,0.7-1.3,1S35.8,23.1,35.1,23.1z M35.1,18.5
				c0.3,0,0.6-0.1,0.8-0.2c0.2-0.2,0.4-0.4,0.5-0.7c0.1-0.3,0.2-0.7,0.2-1.1s-0.1-0.8-0.2-1.1s-0.3-0.6-0.5-0.7s-0.5-0.3-0.8-0.3
				c-0.3,0-0.6,0.1-0.9,0.3s-0.4,0.4-0.5,0.8c-0.1,0.3-0.2,0.7-0.2,1.1c0,0.4,0.1,0.8,0.2,1.1c0.1,0.3,0.3,0.5,0.5,0.7
				C34.5,18.5,34.8,18.5,35.1,18.5z"/>
			<path class="st1" d="M46.5,14.9L44.6,15c0-0.2-0.1-0.3-0.2-0.4c-0.1-0.1-0.2-0.2-0.4-0.3c-0.2-0.1-0.4-0.1-0.6-0.1
				c-0.3,0-0.6,0.1-0.8,0.2s-0.3,0.3-0.3,0.5c0,0.2,0.1,0.3,0.2,0.4s0.4,0.2,0.7,0.3l1.3,0.3c0.7,0.1,1.3,0.4,1.6,0.7
				c0.4,0.3,0.5,0.8,0.5,1.3c0,0.5-0.1,0.9-0.4,1.3c-0.3,0.4-0.7,0.7-1.2,0.9s-1.1,0.3-1.7,0.3c-1,0-1.8-0.2-2.3-0.6
				c-0.6-0.4-0.9-1-1-1.7l2-0.1c0.1,0.3,0.2,0.5,0.4,0.7c0.2,0.2,0.5,0.2,0.9,0.2c0.4,0,0.6-0.1,0.9-0.2c0.2-0.1,0.3-0.3,0.3-0.5
				c0-0.2-0.1-0.3-0.2-0.5s-0.4-0.2-0.7-0.3l-1.3-0.3c-0.7-0.1-1.3-0.4-1.6-0.8s-0.5-0.8-0.5-1.4c0-0.5,0.1-0.9,0.4-1.2
				c0.3-0.3,0.6-0.6,1.1-0.8c0.5-0.2,1-0.3,1.7-0.3c0.9,0,1.7,0.2,2.2,0.6S46.4,14.2,46.5,14.9z"/>
			<path class="st1" d="M50,15.9v4.3H48v-9.9h2v3.8h0.1c0.2-0.4,0.4-0.8,0.8-1s0.8-0.4,1.4-0.4c0.5,0,1,0.1,1.3,0.3s0.7,0.5,0.9,1
				c0.2,0.4,0.3,0.9,0.3,1.5v4.7h-2.1v-4.4c0-0.5-0.1-0.8-0.3-1.1s-0.6-0.4-1-0.4c-0.3,0-0.5,0.1-0.7,0.2c-0.2,0.1-0.4,0.3-0.5,0.5
				C50.1,15.3,50,15.6,50,15.9z"/>
			<path class="st1" d="M57.5,11.8c-0.3,0-0.6-0.1-0.8-0.3s-0.3-0.4-0.3-0.7s0.1-0.5,0.3-0.7c0.2-0.2,0.5-0.3,0.8-0.3
				c0.3,0,0.6,0.1,0.8,0.3c0.2,0.2,0.3,0.4,0.3,0.7s-0.1,0.5-0.3,0.7S57.8,11.8,57.5,11.8z M56.5,20.2v-7.4h2.1v7.4H56.5z"/>
			<path class="st1" d="M60.1,23V12.8h2V14h0.1c0.1-0.2,0.2-0.4,0.4-0.6c0.2-0.2,0.4-0.4,0.7-0.5c0.3-0.1,0.6-0.2,1-0.2
				c0.5,0,1,0.1,1.5,0.4c0.5,0.3,0.8,0.7,1.1,1.3c0.3,0.6,0.4,1.3,0.4,2.1c0,0.8-0.1,1.5-0.4,2.1s-0.6,1-1.1,1.3s-1,0.4-1.5,0.4
				c-0.4,0-0.7-0.1-1-0.2s-0.5-0.3-0.7-0.5c-0.2-0.2-0.3-0.4-0.4-0.6h-0.1v4H60.1z M62.2,16.5c0,0.4,0.1,0.8,0.2,1.2
				c0.1,0.3,0.3,0.6,0.5,0.8s0.5,0.3,0.8,0.3c0.3,0,0.6-0.1,0.8-0.3c0.2-0.2,0.4-0.4,0.5-0.8s0.2-0.7,0.2-1.1c0-0.4-0.1-0.8-0.2-1.1
				c-0.1-0.3-0.3-0.6-0.5-0.8c-0.2-0.2-0.5-0.3-0.9-0.3c-0.3,0-0.6,0.1-0.8,0.3c-0.2,0.2-0.4,0.4-0.5,0.8
				C62.2,15.7,62.2,16,62.2,16.5z"/>
			<path class="st1" d="M80.6,13.8h-2.1c0-0.3-0.1-0.5-0.2-0.7s-0.3-0.4-0.5-0.5c-0.2-0.2-0.4-0.3-0.6-0.3c-0.2-0.1-0.5-0.1-0.8-0.1
				c-0.5,0-1,0.1-1.3,0.4s-0.7,0.6-0.9,1.1c-0.2,0.5-0.3,1.1-0.3,1.7c0,0.7,0.1,1.3,0.3,1.8c0.2,0.5,0.5,0.8,0.9,1.1
				c0.4,0.2,0.8,0.4,1.3,0.4c0.3,0,0.5,0,0.8-0.1c0.2-0.1,0.5-0.2,0.6-0.3s0.3-0.3,0.5-0.5c0.1-0.2,0.2-0.4,0.3-0.7l2.1,0
				c-0.1,0.5-0.2,0.9-0.4,1.3c-0.2,0.4-0.5,0.8-0.9,1.1c-0.4,0.3-0.8,0.6-1.3,0.8c-0.5,0.2-1.1,0.3-1.7,0.3c-0.9,0-1.7-0.2-2.4-0.6
				c-0.7-0.4-1.2-1-1.6-1.7s-0.6-1.7-0.6-2.7c0-1.1,0.2-2,0.6-2.7c0.4-0.8,1-1.3,1.6-1.7c0.7-0.4,1.5-0.6,2.3-0.6
				c0.6,0,1.1,0.1,1.6,0.2s0.9,0.4,1.3,0.7c0.4,0.3,0.7,0.7,0.9,1.1C80.4,12.7,80.6,13.2,80.6,13.8z"/>
			<path class="st1" d="M85.4,20.3c-0.7,0-1.4-0.2-1.9-0.5c-0.5-0.3-1-0.8-1.3-1.3c-0.3-0.6-0.4-1.2-0.4-2c0-0.8,0.1-1.4,0.4-2
				s0.7-1,1.3-1.3s1.2-0.5,1.9-0.5s1.4,0.2,1.9,0.5s1,0.8,1.3,1.3s0.4,1.2,0.4,2c0,0.8-0.1,1.4-0.4,2c-0.3,0.6-0.7,1-1.3,1.3
				C86.8,20.2,86.2,20.3,85.4,20.3z M85.5,18.7c0.3,0,0.6-0.1,0.9-0.3c0.2-0.2,0.4-0.5,0.5-0.8c0.1-0.3,0.2-0.7,0.2-1.2
				c0-0.4-0.1-0.8-0.2-1.2c-0.1-0.3-0.3-0.6-0.5-0.8s-0.5-0.3-0.9-0.3c-0.3,0-0.6,0.1-0.9,0.3c-0.2,0.2-0.4,0.5-0.5,0.8
				c-0.1,0.3-0.2,0.7-0.2,1.2c0,0.4,0.1,0.8,0.2,1.2c0.1,0.3,0.3,0.6,0.5,0.8C84.8,18.6,85.1,18.7,85.5,18.7z"/>
			<path class="st1" d="M95.2,17v-4.3h2.1v7.4h-2v-1.3h-0.1c-0.2,0.4-0.4,0.8-0.8,1s-0.9,0.4-1.4,0.4c-0.5,0-0.9-0.1-1.3-0.3
				s-0.7-0.5-0.9-1c-0.2-0.4-0.3-0.9-0.3-1.5v-4.7h2.1v4.4c0,0.4,0.1,0.8,0.4,1c0.2,0.3,0.5,0.4,0.9,0.4c0.2,0,0.5-0.1,0.7-0.2
				c0.2-0.1,0.4-0.3,0.5-0.5S95.2,17.4,95.2,17z"/>
			<path class="st1" d="M98.9,20.2v-7.4h2v1.3h0.1c0.1-0.5,0.4-0.8,0.7-1c0.3-0.2,0.7-0.4,1.1-0.4c0.1,0,0.2,0,0.3,0s0.2,0,0.3,0.1
				v1.8c-0.1,0-0.2-0.1-0.4-0.1c-0.2,0-0.3,0-0.5,0c-0.3,0-0.6,0.1-0.8,0.2s-0.4,0.3-0.6,0.5s-0.2,0.5-0.2,0.8v4.2H98.9z"/>
			<path class="st1" d="M110.6,14.9l-1.9,0.1c0-0.2-0.1-0.3-0.2-0.4c-0.1-0.1-0.2-0.2-0.4-0.3c-0.2-0.1-0.4-0.1-0.6-0.1
				c-0.3,0-0.6,0.1-0.8,0.2s-0.3,0.3-0.3,0.5c0,0.2,0.1,0.3,0.2,0.4c0.1,0.1,0.4,0.2,0.7,0.3l1.3,0.3c0.7,0.1,1.3,0.4,1.6,0.7
				c0.4,0.3,0.5,0.8,0.5,1.3c0,0.5-0.1,0.9-0.4,1.3c-0.3,0.4-0.7,0.7-1.2,0.9c-0.5,0.2-1.1,0.3-1.7,0.3c-1,0-1.8-0.2-2.3-0.6
				s-0.9-1-1-1.7l2-0.1c0.1,0.3,0.2,0.5,0.4,0.7c0.2,0.2,0.5,0.2,0.9,0.2c0.4,0,0.7-0.1,0.9-0.2c0.2-0.1,0.3-0.3,0.3-0.5
				c0-0.2-0.1-0.3-0.2-0.5s-0.4-0.2-0.7-0.3l-1.3-0.3c-0.7-0.1-1.3-0.4-1.6-0.8c-0.4-0.4-0.5-0.8-0.5-1.4c0-0.5,0.1-0.9,0.4-1.2
				s0.6-0.6,1.1-0.8c0.5-0.2,1-0.3,1.7-0.3c0.9,0,1.7,0.2,2.2,0.6C110.2,13.7,110.5,14.2,110.6,14.9z"/>
			<path class="st1" d="M115.4,20.3c-0.8,0-1.4-0.2-2-0.5c-0.5-0.3-1-0.8-1.3-1.3s-0.4-1.2-0.4-2c0-0.8,0.1-1.4,0.4-2
				c0.3-0.6,0.7-1,1.3-1.3c0.5-0.3,1.2-0.5,1.9-0.5c0.5,0,0.9,0.1,1.4,0.2c0.4,0.2,0.8,0.4,1.1,0.7c0.3,0.3,0.6,0.7,0.7,1.2
				c0.2,0.5,0.3,1,0.3,1.7V17h-6.3v-1.3h4.3c0-0.3-0.1-0.6-0.2-0.8c-0.1-0.2-0.3-0.4-0.5-0.5c-0.2-0.1-0.5-0.2-0.8-0.2
				c-0.3,0-0.6,0.1-0.8,0.2s-0.4,0.3-0.6,0.6c-0.1,0.2-0.2,0.5-0.2,0.8V17c0,0.4,0.1,0.7,0.2,1c0.1,0.3,0.3,0.5,0.6,0.6
				c0.3,0.1,0.5,0.2,0.9,0.2c0.2,0,0.4,0,0.6-0.1s0.4-0.2,0.5-0.3c0.1-0.1,0.2-0.3,0.3-0.5l1.9,0.1c-0.1,0.5-0.3,0.9-0.6,1.2
				c-0.3,0.3-0.7,0.6-1.1,0.8C116.6,20.2,116,20.3,115.4,20.3z"/>
		</g>
	</g>
</g>
<path class="st2" d="M114.8,31.5H16C7.4,31.5,0.5,24.6,0.5,16v0C0.5,7.4,7.4,0.5,16,0.5h98.8c8.6,0,15.5,6.9,15.5,15.5v0
	C130.3,24.6,123.3,31.5,114.8,31.5z"/>
</svg>
